<svg xmlns="http://www.w3.org/2000/svg" viewBox="0 0 486.28 73.71"><title>アセット 6</title><g id="Layer_2" data-name="レイヤー 2"><g id="レイヤー_1-2" data-name="レイヤー 1"><polygon points="277.46 17.71 305.73 17.72 305.8 0.71 260.45 0.71 260.45 72.99 305.8 73 305.73 55.99 277.46 55.98 277.46 45.35 277.46 45.35 305.8 45.36 305.8 28.36 277.46 28.35 277.46 28.34 277.46 17.71"/><polygon points="37.96 36.85 17.09 0.71 0 0.71 0 72.99 17.01 72.99 17.01 34.57 37.96 70.86 58.92 34.57 58.92 72.99 75.93 72.99 75.93 0.71 58.83 0.71 37.96 36.85"/><path d="M209.58,50.31a6.38,6.38,0,0,1-6.38,6.38H199a6.38,6.38,0,0,1-6.38-6.38V.71h-17V52.44A21.29,21.29,0,0,0,196.82,73.7h8.5a21.28,21.28,0,0,0,21.26-21.26V.71h-17Z"/><path d="M408.32.71H378.56V73h17V56h12.75a21.28,21.28,0,0,0,21.26-21.26V22A21.28,21.28,0,0,0,408.32.71Zm-12.75,17H406.2a6.39,6.39,0,0,1,6.38,6.38v8.5A6.39,6.39,0,0,1,406.2,39H395.57Z"/><polygon points="121.28 0.7 121.28 28.33 137.24 0.69 121.28 0.7"/><polygon points="121.28 72.98 137.24 72.99 121.28 45.35 121.28 72.98"/><path d="M465,0h-8.51a21.29,21.29,0,0,0-21.26,21.26V52.45a21.29,21.29,0,0,0,21.26,21.26H465a21.29,21.29,0,0,0,21.26-21.26V21.26A21.29,21.29,0,0,0,465,0Zm4.25,23.39V50.32a6.38,6.38,0,0,1-6.38,6.38h-4.25a6.38,6.38,0,0,1-6.38-6.38V23.39A6.38,6.38,0,0,1,458.64,17h4.25A6.38,6.38,0,0,1,469.27,23.39Z"/><polygon points="81.59 46.41 92.93 46.41 92.93 52.79 81.59 52.79 81.59 58.19 92.93 58.19 92.93 64.57 81.59 64.57 81.59 72.99 104.27 72.99 104.27 0.71 81.59 0.71 81.59 46.41"/><polygon points="155.01 0.71 134.14 36.86 155 72.99 172.71 72.99 151.85 36.86 172.73 0.71 155.01 0.71"/><polygon points="353.25 0.71 342.2 19.85 331.15 0.71 311.51 0.71 353.25 73 372.89 73 352.02 36.86 372.89 0.71 353.25 0.71"/><polygon points="311.52 73 335.53 73 323.52 52.2 311.52 73"/></g></g></svg>